<svg width="480" height="480" viewBox="0 0 480 480" fill="none" xmlns="http://www.w3.org/2000/svg">
<path d="M166.65 377.362C150.787 364.875 133.875 352.912 122.287 336.075C97.9499 306.375 79.1999 271.95 66.4124 235.8C58.6499 212.287 56.0249 187.087 46.0124 164.475C35.5874 148.05 47.8124 130.125 65.7749 124.912C73.7624 123.375 87.8624 115.8 70.8749 121.237C55.6499 132.412 54.1874 111.075 69.7874 109.725C80.4374 108.3 84.3749 99.6 80.7374 91.725C69.2999 84.2625 108.487 76.05 88.7624 64.9125C68.2124 42.75 117.487 38.475 105.337 63.675C102.45 83.025 139.762 60.1125 131.1 82.4625C139.912 93.1875 164.1 84.9 163.462 99.975C176.287 100.875 180.712 111.637 192.712 112.462C205.2 118.087 227.812 122.55 232.05 136.612C219.675 146.4 190.987 116.362 189.637 143.512C193.387 183.6 192.412 224.887 207.075 263.062C214.012 286.162 230.812 304.35 246 322.35C260.55 339.975 280.2 352.387 300.3 362.85C317.887 371.137 336.862 376.65 356.062 380.1C363.825 374.137 377.587 352.05 389.7 361.35C390.3 371.85 365.625 383.25 388.537 382.125C402 378.075 411.337 392.512 422.437 379.462C432.637 391.575 464.887 371.737 457.612 396.45C447.787 402.787 433.462 398.962 423.6 407.7C407.362 399.6 394.462 414.937 376.5 413.025C356.55 416.587 336.262 418.05 316.012 418.05C282.825 415.425 248.925 414.337 217.387 402.787C199.612 397.612 182.25 387.487 166.65 377.362ZM194.662 389.512C212.025 397.012 229.012 404.925 248.025 407.325C278.212 411.525 309.412 417.975 339.712 412.087C325.987 405.9 311.812 414.487 298.162 407.662C281.775 411.187 264.187 406.762 247.537 404.587C228.6 396.15 208.162 390.337 190.425 379.387C168.262 371.287 201.9 389.775 207.862 391.275C221.7 399.15 192.637 387.225 188.512 383.962C176.925 377.437 175.425 378.825 187.35 385.425C189.75 386.812 192.15 388.312 194.662 389.512ZM161.625 366.15C178.462 372.375 161.55 354.3 153.862 355.35C150.45 349.425 140.812 345.675 147.6 342.487C135.375 346.725 134.775 326.362 129.037 329.25C116.1 325.162 124.012 310.687 108.6 301.8C107.212 292.425 93.2999 284.325 88.8749 270.187C86.9249 262.95 73.1624 242.212 81.5999 261.525C88.7999 280.125 101.437 296.062 111.975 311.962C120.15 327.112 129.825 342.937 144.675 352.387C149.7 357.262 154.537 364.65 161.625 366.15ZM113.137 312.937C116.212 318.412 113.737 310.387 113.137 312.937ZM181.762 373.612C185.512 371.962 176.4 371.512 181.762 373.612ZM190.912 376.95C189.975 372.337 186.75 379.537 190.912 376.95ZM202.35 381.712C207.787 376.537 193.95 378.45 202.35 381.712ZM221.925 392.625C225.262 387.75 211.35 390.787 221.925 392.625ZM184.312 366.412C192.75 360.937 173.4 366.337 184.312 366.412ZM192.9 370.687C192.637 367.8 189.825 371.962 192.9 370.687ZM235.762 397.425C242.662 401.775 276 406.95 255.112 399.225C251.625 399.975 216.375 389.25 235.762 397.425ZM167.7 344.437C167.025 341.55 157.012 341.25 167.7 344.437ZM187.65 356.062C192.862 352.462 176.887 353.287 187.65 356.062ZM204.45 366.375C211.875 363.562 192.337 363.562 204.45 366.375ZM159.562 335.587C167.662 341.775 192.187 336.375 171.937 331.875C162.75 326.962 141.975 323.625 156.112 334.837L159.562 335.587ZM215.812 369.937C219.187 364.2 201.675 366.637 215.812 369.937ZM198.712 356.325C218.475 361.912 182.1 343.8 193.837 354.262L196.462 355.462L198.712 356.325ZM232.987 376.125C251.7 376.312 216.075 373.575 232.987 376.125ZM152.362 324.75C151.65 321.262 147.75 325.05 152.362 324.75ZM264.637 393.9C265.162 387.6 258.562 398.587 264.637 393.9ZM184.312 344.325C183.187 341.025 178.462 344.175 184.312 344.325ZM154.162 322.575C164.887 321.937 139.425 317.85 154.162 322.575ZM118.387 299.475C117.037 294.3 106.687 290.212 118.387 299.475ZM212.25 359.025C211.312 359.512 210.3 356.775 212.25 359.025ZM270.675 394.875C270.487 391.462 267.487 396.187 270.675 394.875ZM207.075 353.7C208.125 349.275 197.925 352.35 207.075 353.7ZM163.575 326.1C171.562 325.237 150.75 320.7 163.575 326.1ZM237.187 371.85C249.637 366.9 225.037 369.45 237.187 371.85ZM198.9 345.862C213.262 347.7 181.8 336.075 195.75 344.812L198.9 345.862ZM248.812 376.575C262.237 368.55 257.812 395.362 271.575 378.825C285.15 368.925 259.837 391.087 276.562 380.587C288.675 372.487 306.525 384.412 317.812 388.312C325.912 387.9 333.825 395.325 342.15 390.825C358.162 386.512 310.8 384.412 323.212 376.762C308.55 381.037 297.712 371.662 290.512 362.287C274.05 358.5 255.037 350.1 246.825 335.512C243.487 330.037 251.662 336.3 243.937 327.337C234.037 318.525 229.087 308.512 222.45 297.787C214.5 293.55 213.562 281.062 212.775 297.375C212.85 287.1 203.175 280.162 200.812 283.05C200.775 273.15 211.162 278.1 203.887 270.787C202.312 260.512 197.175 249.825 195.637 238.237C193.237 232.65 195.3 220.687 187.425 233.325C184.575 246.712 186.487 216.9 190.95 226.725C196.8 216.712 188.85 217.875 188.512 219.262C192.337 210.787 190.912 198.787 187.5 203.362C189.525 194.4 190.725 170.362 184.462 174.637C188.25 165.262 191.662 131.737 175.2 144.525C168.525 144.637 157.012 146.925 151.537 149.662C168.637 159.075 149.812 153.075 142.837 151.575C141.937 160.312 135.037 156.525 126.412 156.6C140.175 158.287 119.7 170.662 111.825 165.862C101.55 170.775 120.675 183 112.012 186.787C113.062 192.487 96.2999 184.725 97.6124 197.887C87.6749 193.687 96.2624 213.487 101.212 206.812C118.125 211.387 113.137 221.85 113.55 231.75C110.775 237.525 99.9374 218.175 111.15 219.075C102.3 204.712 101.362 213.9 94.0499 220.537C92.3624 221.025 112.762 230.025 99.9374 234.487C111.225 236.25 111.562 246.112 113.85 252.337C120.637 259.387 119.25 244.537 127.35 253.012C122.212 245.437 100.162 231.712 117.9 236.1C117.787 228.487 114.675 222.337 120.15 222.487C125.55 212.737 114.487 246.562 126.637 234.15C130.012 232.687 130.837 224.4 136.875 234.937C145.65 243.562 140.062 249.825 127.65 241.912C129.862 249.45 144.225 252.112 141.525 263.887C144.375 274.237 148.387 270.412 151.875 269.812C154.612 279.862 156.15 272.475 156.3 267.675C168.825 270.375 165.9 277.762 169.8 282.937C178.425 286.837 157.462 256.537 172.275 273.825C187.875 287.887 178.125 293.775 164.137 291.525C172.987 290.812 175.837 303.487 186.9 303.037C196.987 307.837 203.85 326.287 186.45 318.6C180.412 313.162 159.037 306.45 176.512 316.8C192.637 324.262 205.425 328.725 220.987 338.1C232.087 346.05 236.925 355.125 241.125 356.925C231.787 361.387 212.962 353.362 226.95 350.887C218.212 349.312 208.425 344.887 216.787 355.762C223.875 361.687 241.95 361.087 245.212 361.725C242.475 367.762 237.75 368.25 245.325 368.7C236.887 373.275 248.025 373.987 248.812 376.575ZM231.562 327.825C226.425 322.462 225.112 312.412 230.662 321.15C233.475 322.275 239.775 337.575 231.562 327.825ZM287.775 363.525C290.962 363.3 287.85 365.962 287.775 363.525ZM223.462 314.662C225.3 320.925 223.237 306.525 223.462 314.662ZM217.875 307.125C226.012 310.687 211.387 294.675 217.875 307.125ZM150.15 260.4C153.937 259.387 152.025 266.887 150.15 260.4ZM204.037 289.612C206.775 296.962 206.362 280.875 204.037 289.612ZM165.975 263.137C171.6 267.675 163.312 258.3 165.975 263.137ZM198.637 273.6C192.525 259.912 202.987 266.1 199.987 275.85L198.637 273.6ZM142.312 236.062C139.575 231.562 135.075 218.362 136.5 214.35C137.812 220.912 150.45 242.587 142.687 223.312C134.137 207.187 152.925 228.562 154.875 232.575C155.775 236.587 149.587 231.487 153.787 240.862C146.137 230.175 149.287 246.787 142.312 236.062ZM124.912 224.062C128.887 231.225 125.625 213.6 124.912 224.062ZM132.712 226.762C139.05 237.75 136.462 218.85 132.712 226.762ZM113.887 212.175C107.4 205.725 102.712 199.8 114.187 208.162C118.612 208.35 104.362 194.662 115.237 203.812C126.712 205.912 120.9 222.6 113.887 212.175ZM123.787 211.912C127.537 208.2 125.775 215.587 123.787 211.912ZM129.862 213.862C136.8 218.362 124.162 203.175 129.862 213.862ZM117.787 202.312C98.9624 185.55 141.45 211.087 120.862 205.425L117.787 202.312ZM171.75 233.662C163.575 228.787 169.575 199.237 172.35 219.45C180.262 216.9 171.9 229.875 177.825 229.762C176.925 237.937 174.262 240.9 171.75 233.662ZM191.737 245.475C193.425 251.55 192.525 236.55 191.737 245.475ZM188.25 242.025C189.15 238.237 188.362 246.525 188.25 242.025ZM121.462 196.8C109.35 180.112 156.637 213.712 129.225 201.037C126.337 200.25 122.887 199.987 121.462 196.8ZM159.937 217.162C162.487 219.487 158.775 203.1 159.937 217.162ZM189.112 235.912C191.362 227.887 189.3 241.2 189.112 235.912ZM123.337 190.425C130.537 188.887 153.15 203.062 132.375 194.475C130.05 191.887 125.137 193.05 123.337 190.425ZM185.1 221.212C185.85 206.812 189.412 212.625 185.137 223.275L185.1 221.212ZM128.662 185.4C131.587 181.087 120.862 165.975 130.2 179.962C134.25 183.15 141.862 185.325 135.112 186.675C145.762 196.05 132.562 189.225 128.662 185.4ZM182.062 216.712C184.087 200.325 183.825 226.312 182.062 216.712ZM122.55 170.287C124.8 169.312 123.75 173.25 122.55 170.287ZM136.462 178.575C143.1 186.937 140.062 171.037 136.462 178.575ZM175.725 200.4C176.475 204.6 175.725 197.512 175.725 200.4ZM173.475 195.375C178.537 202.5 168.037 181.912 173.475 195.375ZM170.137 186.562C173.25 193.537 169.2 181.012 170.137 186.562ZM175.575 177.712C171.825 171.112 180.3 148.65 181.237 162.6C177.3 173.437 180.112 179.512 182.85 164.962C187.95 153.487 181.762 187.537 175.575 177.712ZM181.162 144.3C182.812 142.312 181.537 146.737 181.162 144.3ZM171.825 328.5C172.087 329.737 169.612 326.55 171.825 328.5ZM191.062 338.25C201.787 341.025 201.712 336.6 192.037 335.287C186.825 330.45 170.4 325.312 185.1 334.687C186.112 337.125 189.187 337.05 191.062 338.25ZM153.037 312.975C158.925 317.4 175.275 325.425 161.437 314.662C166.087 309.262 152.512 306.375 157.012 302.737C145.537 295.725 147.975 296.362 156 296.587C142.237 290.437 157.987 290.887 157.237 287.737C151.912 286.687 130.875 278.362 143.25 288.412C130.65 282 140.25 290.812 136.425 289.875C123.525 286.35 147.9 299.7 134.4 296.362C141.787 302.212 154.275 311.362 137.512 302.55C135.375 305.737 149.55 310.575 153.037 312.975ZM173.175 324.562C197.662 332.437 161.175 314.887 173.175 324.562ZM276.3 387C276.6 382.125 272.925 391.162 276.3 387ZM286.875 391.462C292.537 385.987 287.1 400.2 296.25 390.112C296.362 382.912 295.987 378.637 285.75 387.412C282.937 388.987 281.662 395.625 286.875 391.462ZM118.687 285.825C116.925 279 106.5 279.037 118.687 285.825ZM129.975 293.25C125.775 286.275 114.975 286.95 129.975 293.25ZM194.362 332.062C200.662 337.65 223.237 336.15 201.975 332.737C198.862 328.087 182.025 329.212 194.362 332.062ZM282.862 386.7C292.5 378.6 273.487 390.337 282.862 386.7ZM302.962 400.537C303.037 397.95 298.8 401.662 302.962 400.537ZM303 396.9C313.725 385.537 292.612 397.575 303 396.9ZM90.8249 262.537C81.7124 249.525 85.1624 243.675 76.3499 233.025C74.6624 224.887 61.2374 206.437 69.4124 225.975C76.8749 237.412 79.0874 255.112 90.8249 262.537ZM299.625 393.3C319.35 380.55 291.562 387.75 299.625 393.3ZM314.662 399.187C324.562 390.712 308.437 397.425 314.662 399.187ZM115.312 271.425C118.162 267.225 108.037 270.9 115.312 271.425ZM311.55 395.137C321.112 388.987 309.337 389.925 309.825 395.7L311.55 395.137ZM181.875 313.425C181.537 309.262 176.812 313.762 181.875 313.425ZM189.9 318.037C187.312 312.862 185.962 318.825 189.9 318.037ZM326.887 399.3C339.15 390.45 319.462 397.612 324.337 400.987L326.887 399.3ZM322.162 397.05C332.175 388.687 311.662 400.762 322.162 397.05ZM346.125 412.987C352.837 408.525 337.987 411.562 346.125 412.987ZM121.462 268.387C130.425 270.412 157.312 290.475 141.45 269.775C133.312 267.375 138.187 247.5 129.9 251.025C135.45 260.325 134.475 264.262 122.775 258.412C108.112 251.25 114.525 261.937 117.412 264.9C113.512 265.837 122.625 268.312 121.462 268.387ZM80.5874 236.1C82.1999 229.462 65.7749 199.537 72.8249 221.1C75.3749 225.637 75.1124 234.187 80.5874 236.1ZM155.625 282.375C155.4 281.812 151.012 278.512 155.625 282.375ZM166.987 285.037C166.987 277.987 154.425 282.15 166.987 285.037ZM265.612 347.175C263.737 342.375 258.187 347.1 265.612 347.175ZM270.337 350.662C269.662 347.962 267.637 351.187 270.337 350.662ZM309.45 375.262C313.2 372.487 304.762 374.925 309.45 375.262ZM100.987 241.312C111.75 237.15 89.4749 238.35 100.987 241.312ZM256.95 339.562C256.8 332.587 250.087 341.287 256.95 339.562ZM96.7499 231.412C103.65 229.087 90.3374 229.875 96.7499 231.412ZM116.775 241.125C116.662 238.837 114.675 241.987 116.775 241.125ZM361.35 391.087C370.237 389.287 390.487 395.625 393.75 388.725C382.95 388.462 356.437 381.112 355.2 390.45L357.562 390.825L361.35 391.087ZM123.15 242.737C123.337 235.687 117.675 242.475 123.15 242.737ZM70.4624 206.175C68.0624 192.75 61.3499 204.15 70.4624 206.175ZM83.0249 209.325C83.1749 205.012 71.5124 205.462 83.0249 209.325ZM90.1874 212.85C88.5749 214.987 88.1249 211.2 90.1874 212.85ZM135.412 241.837C137.55 239.887 130.35 240.412 135.412 241.837ZM85.4249 204.9C84.1874 194.737 70.8749 203.4 85.4249 204.9ZM59.6624 188.175C59.2874 183.487 57.1499 189.937 59.6624 188.175ZM63.4874 185.287C62.8499 179.737 60.1874 186 63.4874 185.287ZM84.6749 197.925C93.6374 194.4 68.3624 190.65 82.8374 197.25L84.6749 197.925ZM368.137 373.012C373.875 367.762 360.862 371.4 368.137 373.012ZM402.375 390.787C404.662 384 396.6 391.65 402.375 390.787ZM86.8124 186.825C87.7874 180.262 79.7249 188.137 86.8124 186.825ZM56.6999 166.65C55.0874 157.387 55.3124 141.075 70.7999 146.587C50.1374 150.712 85.1249 172.275 80.6999 155.25C89.3999 155.662 97.6874 150.112 93.1499 158.55C110.287 156.675 122.137 141.825 138.675 143.887C151.575 142.162 165.637 140.887 179.512 135.712C190.912 134.887 201.9 122.587 195.675 115.312C180.112 114 163.8 115.95 146.625 119.362C127.575 123.337 110.25 130.837 91.0124 134.1C72.2624 136.612 94.7624 141.037 89.3999 142.012C79.6124 145.387 101.062 147.712 88.1249 151.275C80.1374 149.737 71.8124 147 75.2249 138.6C57.2624 140.925 41.4749 148.387 55.6874 166.65H56.6999ZM99.9749 144.6C104.175 129.075 122.512 157.35 106.875 146.662C105 145.237 101.925 144.112 99.9749 144.6ZM100.8 137.062C106.875 132.562 104.025 139.612 100.8 137.062ZM108.525 137.212C109.087 130.087 126.187 141 111.337 139.762L108.525 137.212ZM119.062 132.937C122.925 128.437 120.187 136.95 119.062 132.937ZM121.762 131.137C128.175 123.412 158.1 126.225 136.2 130.387C130.35 125.962 125.85 133.012 121.762 131.137ZM160.837 125.137C180.262 132.6 159.862 104.062 160.837 125.137ZM171.937 125.062C175.987 114.45 187.687 120.787 173.812 122.925C174.112 124.05 173.4 128.4 171.937 125.062ZM82.4624 181.387C94.5749 173.962 69.5999 174.937 82.4624 181.387ZM91.4249 183.862C95.6624 179.362 82.1999 182.025 91.4249 183.862ZM65.0249 165.15C71.9624 159.825 56.8499 163.125 65.0249 165.15ZM422.587 388.837C422.775 382.65 417.3 391.612 422.587 388.837ZM386.25 364.05C387.3 356.925 381.6 364.65 386.25 364.05ZM432.6 391.237C442.275 391.275 461.925 388.237 440.85 388.237C437.55 388.725 421.612 388.65 432.6 391.237ZM99.2999 179.512C107.137 178.987 111.562 170.887 97.7624 171.337C76.4249 169.125 116.587 178.65 95.0249 175.912C92.1374 177.825 99.1124 180.037 99.2999 179.512ZM106.2 183C105.375 177.975 103.762 185.662 106.2 183ZM114.375 161.175C117.75 156.975 109.65 160.05 114.375 161.175ZM88.3124 117.675C102.3 112.912 121.387 107.587 127.987 120C121.275 111.937 125.287 103.95 131.625 115.8C140.587 127.762 145.087 110.362 139.237 106.35C145.875 114.6 153.45 118.5 143.7 106.875C154.312 94.125 122.475 108.562 115.237 108.412C111.787 109.95 79.3124 116.662 88.3124 117.675ZM96.5249 102C104.512 96 124.087 105.6 111.525 96.0375C110.287 94.9125 83.9624 103.275 96.5249 102ZM125.587 103.2C134.925 103.425 121.575 90.675 132.675 96.45C130.837 90.4875 119.737 89.3625 114.3 87C111.225 92.4375 120.525 103.275 125.587 103.2ZM101.625 76.8C104.85 72.45 95.9624 79.05 101.625 76.8ZM113.475 79.65C128.512 77.6625 109.65 73.2 110.437 79.5L113.475 79.65ZM91.3124 62.325C80.7374 48.4875 111.225 64.65 100.462 50.175C91.4249 42.975 82.7249 58.275 91.3124 62.325ZM227.1 135.45C231.937 126.862 207.075 123.862 223.837 132.412C225.412 132.937 225.037 136.05 227.1 135.45Z" fill="#010101"/>
</svg>
