<svg width="480" height="480" viewBox="0 0 480 480" fill="none" xmlns="http://www.w3.org/2000/svg">
<path d="M467.872 73.2001L252.465 458.393C248.014 466.346 236.587 466.391 232.076 458.483L12.3937 73.2451C7.46999 64.6126 14.8387 54.1688 24.6225 55.9126L240.262 94.4513C241.639 94.7026 243.049 94.7026 244.425 94.4513L455.55 55.9726C465.293 54.1988 472.706 64.5563 467.872 73.2001Z" fill="url(#paint0_linear_5_2)"/>
<path d="M342.975 5.36258L183.577 36.5926C182.305 36.8412 181.152 37.5053 180.298 38.4807C179.444 39.456 178.938 40.6874 178.86 41.9813L169.046 207.611C168.993 208.52 169.153 209.428 169.512 210.264C169.871 211.1 170.42 211.841 171.115 212.428C171.809 213.015 172.632 213.433 173.516 213.647C174.4 213.862 175.322 213.867 176.209 213.664L220.594 203.408C221.55 203.188 222.545 203.212 223.49 203.477C224.434 203.742 225.296 204.24 225.998 204.926C226.7 205.611 227.218 206.461 227.506 207.399C227.793 208.337 227.841 209.332 227.644 210.293L214.455 274.864C214.253 275.858 214.313 276.887 214.629 277.851C214.944 278.814 215.505 279.68 216.255 280.362C217.005 281.044 217.92 281.52 218.909 281.743C219.898 281.965 220.928 281.927 221.899 281.633L249.304 273.296C253.552 272.006 257.64 275.741 256.748 280.091L235.785 381.518C234.48 387.863 242.918 391.32 246.435 385.883L248.779 382.253L378.679 123.015C380.861 118.665 377.1 113.715 372.341 114.638L326.647 123.458C325.664 123.649 324.648 123.584 323.697 123.269C322.747 122.954 321.893 122.4 321.217 121.66C320.542 120.92 320.069 120.019 319.842 119.044C319.616 118.068 319.644 117.051 319.924 116.089L349.736 12.7313C350.017 11.7662 350.043 10.7452 349.814 9.76671C349.585 8.78819 349.108 7.88516 348.429 7.14468C347.749 6.4042 346.891 5.85124 345.935 5.53909C344.98 5.22695 343.961 5.16616 342.975 5.36258Z" fill="url(#paint1_linear_5_2)"/>
<defs>
<linearGradient id="paint0_linear_5_2" x1="7.02449" y1="42.1486" x2="275.126" y2="406.252" gradientUnits="userSpaceOnUse">
<stop stop-color="#41D1FF"/>
<stop offset="1" stop-color="#BD34FE"/>
</linearGradient>
<linearGradient id="paint1_linear_5_2" x1="227.888" y1="13.8375" x2="276.386" y2="346.531" gradientUnits="userSpaceOnUse">
<stop stop-color="#FFEA83"/>
<stop offset="0.083" stop-color="#FFDD35"/>
<stop offset="1" stop-color="#FFA800"/>
</linearGradient>
</defs>
</svg>
